<svg xmlns="http://www.w3.org/2000/svg" viewBox="0 0 160 160" role="img" aria-label="Medico CardioLab">
  <defs>
    <linearGradient id="bg" x1="0" y1="0" x2="1" y2="1"><stop stop-color="#fee2e2"/><stop offset="1" stop-color="#f8fafc"/></linearGradient>
  </defs>
  <rect width="160" height="160" rx="34" fill="url(#bg)"/>
  <circle cx="80" cy="68" r="34" fill="#f2c6a8"/>
  <path d="M48 68c4-31 22-44 54-34 11 6 15 18 14 34-12-8-24-14-45-13-10 0-17 4-23 13z" fill="#2f2a2a"/>
  <circle cx="67" cy="72" r="3" fill="#2f2a2a"/><circle cx="93" cy="72" r="3" fill="#2f2a2a"/>
  <path d="M67 91c10 7 18 7 27 0" fill="none" stroke="#9f1239" stroke-width="4" stroke-linecap="round"/>
  <path d="M35 145c4-31 24-48 45-48s41 17 45 48" fill="#ffffff"/>
  <path d="M62 105l18 20 18-20" fill="none" stroke="#d60000" stroke-width="5" stroke-linecap="round" stroke-linejoin="round"/>
  <circle cx="120" cy="124" r="10" fill="#d60000"/><path d="M115 124h10M120 119v10" stroke="#fff" stroke-width="3" stroke-linecap="round"/>
</svg>
