<svg xmlns="http://www.w3.org/2000/svg" viewBox="0 0 160 160" role="img" aria-label="Medica CardioLab">
  <defs>
    <linearGradient id="bg" x1="0" y1="0" x2="1" y2="1"><stop stop-color="#e0f2fe"/><stop offset="1" stop-color="#fff7ed"/></linearGradient>
  </defs>
  <rect width="160" height="160" rx="34" fill="url(#bg)"/>
  <path d="M42 79c0-34 16-54 38-54s38 20 38 54c0 24-8 38-38 38S42 103 42 79z" fill="#7c2d12"/>
  <circle cx="80" cy="70" r="32" fill="#d7a27f"/>
  <path d="M49 65c9-27 31-33 61-15-9-24-58-31-61 15z" fill="#3f1d13"/>
  <circle cx="68" cy="73" r="3" fill="#2f2a2a"/><circle cx="92" cy="73" r="3" fill="#2f2a2a"/>
  <path d="M68 91c9 6 16 6 25 0" fill="none" stroke="#b91c1c" stroke-width="4" stroke-linecap="round"/>
  <path d="M34 146c5-30 24-48 46-48s41 18 46 48" fill="#fff"/>
  <path d="M62 104l18 22 18-22" fill="none" stroke="#0284c7" stroke-width="5" stroke-linecap="round" stroke-linejoin="round"/>
</svg>
