<svg xmlns="http://www.w3.org/2000/svg" viewBox="0 0 160 160" role="img" aria-label="Medico CardioLab">
  <defs>
    <linearGradient id="bg" x1="0" y1="0" x2="1" y2="1"><stop stop-color="#dcfce7"/><stop offset="1" stop-color="#f1f5f9"/></linearGradient>
  </defs>
  <rect width="160" height="160" rx="34" fill="url(#bg)"/>
  <circle cx="80" cy="68" r="33" fill="#c98b68"/>
  <path d="M48 59c7-24 24-36 50-27 14 5 20 17 17 36-20-15-44-19-67-9z" fill="#111827"/>
  <rect x="60" y="68" width="18" height="12" rx="6" fill="none" stroke="#111827" stroke-width="3"/>
  <rect x="82" y="68" width="18" height="12" rx="6" fill="none" stroke="#111827" stroke-width="3"/>
  <path d="M78 74h5" stroke="#111827" stroke-width="3" stroke-linecap="round"/>
  <path d="M68 92c9 5 16 5 25 0" fill="none" stroke="#7f1d1d" stroke-width="4" stroke-linecap="round"/>
  <path d="M35 145c4-31 24-48 45-48s41 17 45 48" fill="#fff"/>
  <path d="M58 112h44" stroke="#16a34a" stroke-width="5" stroke-linecap="round"/>
</svg>
