<svg xmlns="http://www.w3.org/2000/svg" viewBox="0 0 160 160" role="img" aria-label="Paciente CardioLab">
  <rect width="160" height="160" rx="34" fill="#fff7ed"/>
  <path d="M43 80c0-32 15-51 37-51s37 19 37 51c0 27-11 42-37 42S43 107 43 80z" fill="#7c2d12"/>
  <circle cx="80" cy="70" r="31" fill="#e6b08e"/>
  <path d="M51 64c12-24 35-29 58-9-7-22-50-31-58 9z" fill="#5b2114"/>
  <circle cx="68" cy="74" r="3" fill="#111827"/><circle cx="92" cy="74" r="3" fill="#111827"/>
  <path d="M68 92c9 6 16 6 25 0" fill="none" stroke="#be123c" stroke-width="4" stroke-linecap="round"/>
  <path d="M34 146c5-30 24-47 46-47s41 17 46 47" fill="#f97316"/>
  <circle cx="112" cy="113" r="7" fill="#fff"/>
</svg>
